<svg width="179" height="92" viewBox="0 0 179 92" fill="none" xmlns="http://www.w3.org/2000/svg">
<rect x="0.25" width="178.5" height="92" rx="8" fill="white"/>
<path d="M55.5788 25.7169C50.7125 25.7169 46.3988 28.0119 43.615 31.5606V30.5619H43.5938C43.3636 26.6935 41.665 23.059 38.845 20.4009C36.025 17.7429 32.2965 16.2619 28.4212 16.2606H12.25C12.25 24.6544 19.05 31.4544 27.4437 31.4544H38.4725V57.9319H43.615V40.9319H56.5563C64.95 40.9319 71.75 34.1319 71.75 25.7381H55.5788V25.7169Z" fill="#86D72F"/>
<path d="M41.0437 56.6356C35.9771 56.6356 31.118 58.6483 27.5354 62.231C23.9527 65.8136 21.94 70.6727 21.94 75.7394H60.1687C60.1687 65.1887 51.6156 56.6356 41.0437 56.6356Z" fill="#6D4534"/>
<path d="M86.102 26.952H98.234V31.488H86.102V26.952ZM86.534 37.32H100.25V42H80.738V16.8H99.782V21.48H86.534V37.32ZM113.749 42.288C111.661 42.288 109.801 41.868 108.169 41.028C106.537 40.164 105.253 38.976 104.317 37.464C103.405 35.952 102.949 34.236 102.949 32.316C102.949 30.372 103.405 28.656 104.317 27.168C105.253 25.656 106.537 24.48 108.169 23.64C109.801 22.776 111.661 22.344 113.749 22.344C115.789 22.344 117.565 22.776 119.077 23.64C120.589 24.48 121.705 25.692 122.425 27.276L118.069 29.616C117.565 28.704 116.929 28.032 116.161 27.6C115.417 27.168 114.601 26.952 113.713 26.952C112.753 26.952 111.889 27.168 111.121 27.6C110.353 28.032 109.741 28.644 109.285 29.436C108.853 30.228 108.637 31.188 108.637 32.316C108.637 33.444 108.853 34.404 109.285 35.196C109.741 35.988 110.353 36.6 111.121 37.032C111.889 37.464 112.753 37.68 113.713 37.68C114.601 37.68 115.417 37.476 116.161 37.068C116.929 36.636 117.565 35.952 118.069 35.016L122.425 37.392C121.705 38.952 120.589 40.164 119.077 41.028C117.565 41.868 115.789 42.288 113.749 42.288ZM134.628 42.288C132.564 42.288 130.728 41.856 129.12 40.992C127.536 40.128 126.276 38.952 125.34 37.464C124.428 35.952 123.972 34.236 123.972 32.316C123.972 30.372 124.428 28.656 125.34 27.168C126.276 25.656 127.536 24.48 129.12 23.64C130.728 22.776 132.564 22.344 134.628 22.344C136.668 22.344 138.492 22.776 140.1 23.64C141.708 24.48 142.968 25.644 143.88 27.132C144.792 28.62 145.248 30.348 145.248 32.316C145.248 34.236 144.792 35.952 143.88 37.464C142.968 38.952 141.708 40.128 140.1 40.992C138.492 41.856 136.668 42.288 134.628 42.288ZM134.628 37.68C135.564 37.68 136.404 37.464 137.148 37.032C137.892 36.6 138.48 35.988 138.912 35.196C139.344 34.38 139.56 33.42 139.56 32.316C139.56 31.188 139.344 30.228 138.912 29.436C138.48 28.644 137.892 28.032 137.148 27.6C136.404 27.168 135.564 26.952 134.628 26.952C133.692 26.952 132.852 27.168 132.108 27.6C131.364 28.032 130.764 28.644 130.308 29.436C129.876 30.228 129.66 31.188 129.66 32.316C129.66 33.42 129.876 34.38 130.308 35.196C130.764 35.988 131.364 36.6 132.108 37.032C132.852 37.464 133.692 37.68 134.628 37.68ZM89.018 76.432C87.002 76.432 85.07 76.168 83.222 75.64C81.374 75.088 79.886 74.38 78.758 73.516L80.738 69.124C81.818 69.892 83.09 70.528 84.554 71.032C86.042 71.512 87.542 71.752 89.054 71.752C90.206 71.752 91.13 71.644 91.826 71.428C92.546 71.188 93.074 70.864 93.41 70.456C93.746 70.048 93.914 69.58 93.914 69.052C93.914 68.38 93.65 67.852 93.122 67.468C92.594 67.06 91.898 66.736 91.034 66.496C90.17 66.232 89.21 65.992 88.154 65.776C87.122 65.536 86.078 65.248 85.022 64.912C83.99 64.576 83.042 64.144 82.178 63.616C81.314 63.088 80.606 62.392 80.054 61.528C79.526 60.664 79.262 59.56 79.262 58.216C79.262 56.776 79.646 55.468 80.414 54.292C81.206 53.092 82.382 52.144 83.942 51.448C85.526 50.728 87.506 50.368 89.882 50.368C91.466 50.368 93.026 50.56 94.562 50.944C96.098 51.304 97.454 51.856 98.63 52.6L96.83 57.028C95.654 56.356 94.478 55.864 93.302 55.552C92.126 55.216 90.974 55.048 89.846 55.048C88.718 55.048 87.794 55.18 87.074 55.444C86.354 55.708 85.838 56.056 85.526 56.488C85.214 56.896 85.058 57.376 85.058 57.928C85.058 58.576 85.322 59.104 85.85 59.512C86.378 59.896 87.074 60.208 87.938 60.448C88.802 60.688 89.75 60.928 90.782 61.168C91.838 61.408 92.882 61.684 93.914 61.996C94.97 62.308 95.93 62.728 96.794 63.256C97.658 63.784 98.354 64.48 98.882 65.344C99.434 66.208 99.71 67.3 99.71 68.62C99.71 70.036 99.314 71.332 98.522 72.508C97.73 73.684 96.542 74.632 94.958 75.352C93.398 76.072 91.418 76.432 89.018 76.432ZM115.179 76V72.22L114.819 71.392V64.624C114.819 63.424 114.447 62.488 113.703 61.816C112.983 61.144 111.867 60.808 110.355 60.808C109.323 60.808 108.303 60.976 107.295 61.312C106.311 61.624 105.471 62.056 104.775 62.608L102.759 58.684C103.815 57.94 105.087 57.364 106.575 56.956C108.063 56.548 109.575 56.344 111.111 56.344C114.063 56.344 116.355 57.04 117.987 58.432C119.619 59.824 120.435 61.996 120.435 64.948V76H115.179ZM109.275 76.288C107.763 76.288 106.467 76.036 105.387 75.532C104.307 75.004 103.479 74.296 102.903 73.408C102.327 72.52 102.039 71.524 102.039 70.42C102.039 69.268 102.315 68.26 102.867 67.396C103.443 66.532 104.343 65.86 105.567 65.38C106.791 64.876 108.387 64.624 110.355 64.624H115.503V67.9H110.967C109.647 67.9 108.735 68.116 108.231 68.548C107.751 68.98 107.511 69.52 107.511 70.168C107.511 70.888 107.787 71.464 108.339 71.896C108.915 72.304 109.695 72.508 110.679 72.508C111.615 72.508 112.455 72.292 113.199 71.86C113.943 71.404 114.483 70.744 114.819 69.88L115.683 72.472C115.275 73.72 114.531 74.668 113.451 75.316C112.371 75.964 110.979 76.288 109.275 76.288ZM130.422 76L122.286 56.632H128.082L134.85 73.3H131.97L138.99 56.632H144.39L136.218 76H130.422ZM155.767 76.288C153.559 76.288 151.615 75.856 149.935 74.992C148.279 74.128 146.995 72.952 146.083 71.464C145.171 69.952 144.715 68.236 144.715 66.316C144.715 64.372 145.159 62.656 146.047 61.168C146.959 59.656 148.195 58.48 149.755 57.64C151.315 56.776 153.079 56.344 155.047 56.344C156.943 56.344 158.647 56.752 160.159 57.568C161.695 58.36 162.907 59.512 163.795 61.024C164.683 62.512 165.127 64.3 165.127 66.388C165.127 66.604 165.115 66.856 165.091 67.144C165.067 67.408 165.043 67.66 165.019 67.9H149.287V64.624H162.066L159.907 65.596C159.907 64.588 159.703 63.712 159.295 62.968C158.887 62.224 158.323 61.648 157.603 61.24C156.883 60.808 156.043 60.592 155.083 60.592C154.123 60.592 153.271 60.808 152.527 61.24C151.807 61.648 151.243 62.236 150.835 63.004C150.427 63.748 150.223 64.636 150.223 65.668V66.532C150.223 67.588 150.451 68.524 150.907 69.34C151.387 70.132 152.047 70.744 152.887 71.176C153.751 71.584 154.759 71.788 155.911 71.788C156.943 71.788 157.843 71.632 158.611 71.32C159.403 71.008 160.123 70.54 160.771 69.916L163.759 73.156C162.871 74.164 161.755 74.944 160.411 75.496C159.067 76.024 157.519 76.288 155.767 76.288Z" fill="#09090B"/>
</svg>
